<svg xmlns="http://www.w3.org/2000/svg" xmlns:xlink="http://www.w3.org/1999/xlink" width="1080" zoomAndPan="magnify" viewBox="0 0 810 809.999993" height="1080" preserveAspectRatio="xMidYMid meet" version="1.0"><defs><clipPath id="32da5ae134"><path d="M 4.070312 142.90625 L 805.820312 142.90625 L 805.820312 667.15625 L 4.070312 667.15625 Z M 4.070312 142.90625 " clip-rule="nonzero"/></clipPath></defs><g clip-path="url(#32da5ae134)"><rect x="-81" width="972" fill="#fefefe" y="-80.999999" height="971.999992" fill-opacity="1"/></g><path fill="#fefefe" d="M 521.882812 171.988281 L 523.90625 172.339844 C 530.3125 173.527344 536.320312 175.203125 542.207031 178.023438 L 544.664062 179.1875 L 546.472656 180.066406 L 546.472656 181.519531 L 548.152344 181.789062 C 550.101562 182.242188 550.101562 182.242188 552.277344 183.695312 L 552.277344 185.148438 L 553.957031 185.785156 C 555.90625 186.601562 555.90625 186.601562 558.085938 188.054688 L 558.085938 189.507812 L 559.445312 190.050781 C 560.988281 190.957031 560.988281 190.957031 561.894531 192.5 L 562.441406 193.863281 L 563.890625 193.863281 C 573.496094 205.292969 579.511719 219.328125 582.308594 233.941406 C 583.808594 246.203125 583.144531 258.226562 579.859375 270.113281 L 579.449219 271.644531 C 574.214844 290.730469 564.527344 307.480469 550.828125 321.675781 L 549.226562 323.386719 C 544.625 328.199219 539.441406 332.203125 534.132812 336.199219 L 532.25 337.632812 C 517 348.792969 498.261719 354.714844 479.695312 357.257812 C 476.476562 357.566406 473.476562 357.550781 470.257812 357.257812 L 468.84375 357.167969 C 453.921875 356.238281 440.292969 351.46875 427.617188 343.597656 C 417.167969 336.1875 409.375 326.695312 404.027344 315.09375 C 403.601562 314.144531 403.179688 313.1875 402.757812 312.234375 L 401.667969 309.847656 C 395.984375 295.921875 396.21875 279.804688 398.109375 265.140625 C 400.675781 246.585938 408.859375 230.164062 420.273438 215.472656 C 432.9375 199.546875 448.847656 186.03125 467.855469 178.386719 C 476.292969 175.191406 484.546875 172.980469 493.4375 171.589844 C 494.851562 171.363281 496.265625 171.117188 497.675781 170.867188 C 506.117188 169.472656 513.535156 170.515625 521.882812 171.988281 M 358.480469 335.472656 C 359.457031 335.667969 360.4375 335.867188 361.414062 336.0625 C 373.398438 338.558594 383.738281 343.847656 393.320312 351.449219 L 394.648438 352.476562 C 395.6875 353.308594 396.6875 354.1875 397.675781 355.078125 L 397.675781 356.53125 L 399.128906 356.53125 C 408.304688 366.039062 413.730469 377.507812 416.980469 390.164062 C 420.355469 404.480469 419.480469 420.332031 415.277344 434.371094 C 409.394531 453.125 399.832031 468.664062 386.246094 482.84375 C 384.613281 484.34375 384.613281 484.34375 382.433594 485.070312 L 381.707031 487.246094 C 380.648438 488.210938 380.648438 488.210938 379.257812 489.199219 L 377.667969 490.34375 L 375.902344 491.605469 L 374.019531 493.027344 C 370.152344 495.929688 366.265625 498.4375 361.980469 500.679688 C 359.785156 501.851562 357.664062 503.121094 355.53125 504.402344 C 349.625 507.847656 343.5 509.964844 337.023438 512.074219 L 335.28125 512.652344 C 331.886719 513.730469 328.667969 514.402344 325.113281 514.6875 C 323.636719 514.808594 323.636719 514.808594 322.21875 515.203125 C 310.449219 518.105469 295.683594 516.65625 284.066406 513.640625 C 277.683594 511.738281 271.554688 509.050781 265.574219 506.128906 L 265.574219 504.675781 L 263.398438 504.675781 L 263.398438 503.222656 L 262.148438 503.007812 C 258.226562 501.796875 254.964844 498.351562 252.011719 495.597656 C 250.257812 493.703125 248.585938 491.75 246.945312 489.753906 C 246.007812 488.609375 246.007812 488.609375 244.527344 487.972656 C 243.769531 486.78125 243.046875 485.570312 242.347656 484.34375 L 241.175781 482.492188 C 234.296875 471.304688 230.75 458.96875 230.007812 445.855469 C 229.527344 428.558594 233.441406 410.992188 241.570312 395.699219 C 252.175781 376.511719 267.40625 360.941406 285.898438 349.269531 C 297.300781 342.5625 309.941406 337.914062 322.914062 335.472656 L 325.546875 334.976562 C 336.28125 333.269531 347.863281 333.019531 358.480469 335.472656 M 318.558594 190.230469 L 320.820312 190.871094 C 329.40625 193.480469 336.652344 198.207031 343.964844 203.304688 L 345.667969 204.476562 L 346.867188 205.484375 L 346.867188 206.933594 L 348.058594 207.410156 C 350.363281 208.726562 352.097656 210.503906 353.945312 212.382812 L 355.058594 213.480469 C 355.988281 214.414062 356.875 215.390625 357.753906 216.375 L 357.753906 217.828125 L 359.207031 217.828125 C 366.753906 226.5 372.261719 238.714844 374.535156 249.863281 C 375.320312 254.425781 375.390625 258.910156 375.355469 263.535156 L 375.375 265.929688 C 375.351562 274.867188 374.019531 283.085938 370.09375 291.175781 C 365.382812 299.183594 359.578125 306.242188 351.496094 311.007812 C 343.128906 315.671875 333.113281 318.558594 323.550781 318.996094 C 309.65625 318.554688 295.34375 313.695312 283.519531 306.5 C 271.429688 298.753906 261.4375 287.988281 254.441406 275.457031 C 248.25 262.933594 244.566406 249.605469 245.40625 235.546875 C 246.503906 226.285156 249.445312 216.890625 254.6875 209.113281 C 256.722656 206.535156 258.90625 204.179688 261.21875 201.851562 L 262.683594 200.3125 C 268.457031 194.65625 276.214844 190.839844 283.992188 188.78125 C 295.125 186.808594 307.726562 186.894531 318.558594 190.230469 M 508.820312 375.324219 L 510.71875 375.832031 C 514.398438 376.894531 517.402344 378.265625 520.5625 380.4375 C 521.886719 381.351562 521.886719 381.351562 523.972656 381.949219 L 523.972656 383.402344 L 526.148438 383.402344 L 526.148438 384.855469 L 527.316406 385.011719 C 529.765625 385.8125 531.589844 387.316406 533.589844 388.894531 L 534.863281 389.894531 C 545.910156 398.691406 553.960938 410.402344 559.539062 423.34375 C 560.859375 426.902344 561.734375 430.5 562.441406 434.234375 C 562.546875 434.792969 562.65625 435.351562 562.765625 435.925781 C 563.964844 444.082031 563.75 453.121094 561.714844 461.105469 L 561.175781 463.355469 C 558.953125 471.601562 554.839844 478.453125 548.921875 484.570312 C 542.074219 491.308594 533.515625 495.46875 524.28125 497.910156 C 512.277344 500.410156 498.621094 499.59375 486.953125 495.960938 C 484.800781 495.148438 482.679688 494.269531 480.558594 493.375 L 478.878906 492.679688 C 474.886719 491.015625 474.886719 491.015625 473.164062 490.152344 L 473.164062 488.699219 L 471.4375 488.382812 C 469.535156 487.972656 469.535156 487.972656 468.082031 487.246094 L 468.082031 485.796875 L 466.832031 485.582031 C 464.816406 484.957031 463.597656 483.992188 461.957031 482.664062 L 460.21875 481.261719 L 458.644531 479.984375 L 456.742188 478.578125 C 454.6875 476.792969 452.964844 474.835938 451.207031 472.765625 C 450.4375 471.859375 449.652344 470.96875 448.847656 470.097656 C 439.667969 460.0625 435.183594 447.308594 432.121094 434.320312 C 429.898438 423.945312 431.539062 414.429688 434.652344 404.441406 C 438.097656 395.277344 443.9375 387.898438 451.433594 381.675781 C 459.292969 375.695312 469.140625 372.9375 478.808594 371.261719 C 488.871094 369.984375 499.167969 372.65625 508.820312 375.324219 " fill-opacity="1" fill-rule="nonzero"/><path fill="#fefefe" d="M 370.035156 363.644531 C 378.332031 367.527344 385.367188 373.59375 390.734375 380.996094 C 395.046875 387.878906 397.117188 395.914062 397.824219 403.960938 C 398.078125 415.5 394.3125 426.703125 389.195312 436.914062 C 386.367188 441.84375 382.605469 446.019531 378.804688 450.210938 L 377.355469 451.84375 C 370.121094 459.566406 361.125 464.871094 351.222656 468.367188 L 349.832031 468.859375 C 339.148438 472.449219 326.339844 472.742188 315.304688 470.792969 C 307.972656 468.90625 300.753906 464.953125 295.332031 459.652344 C 289.734375 453.804688 286.035156 446.898438 284.003906 439.074219 C 281.621094 428.304688 281.96875 418.375 285.054688 407.730469 C 287.839844 399.335938 292.09375 391.9375 297.691406 385.125 L 298.652344 383.953125 C 299.449219 383.011719 300.289062 382.113281 301.140625 381.222656 L 302.59375 381.222656 L 302.59375 379.769531 C 313.023438 369.859375 324.945312 364.550781 338.71875 361.113281 C 349.066406 358.890625 360.21875 359.558594 370.035156 363.644531 M 510.179688 225.089844 C 516.636719 228.226562 522.164062 231.925781 526.464844 237.707031 C 528.613281 240.914062 530.433594 244.257812 532.183594 247.691406 L 532.925781 249.136719 C 536.578125 256.539062 536.8125 263.730469 536.457031 271.871094 C 535.574219 283.273438 531.101562 294.867188 524.699219 304.246094 C 522.199219 307.535156 519.480469 310.621094 516.714844 313.6875 L 515.265625 315.34375 C 511.089844 319.859375 505.96875 322.878906 500.746094 326.03125 L 499.019531 327.125 C 490.09375 332.519531 479.519531 334.605469 469.214844 334.972656 C 460.226562 334.761719 451.320312 332.386719 443.609375 327.75 C 436.804688 323.179688 432.136719 317.964844 428.160156 310.78125 C 424.316406 302.675781 422.605469 294.25 423.257812 285.273438 C 424.390625 273.070312 428.074219 262.007812 434.808594 251.753906 C 436.175781 249.851562 437.589844 247.984375 439.050781 246.148438 C 439.554688 245.480469 440.058594 244.808594 440.582031 244.117188 C 441.03125 243.589844 441.484375 243.0625 441.953125 242.519531 L 443.402344 242.519531 L 444.128906 240.339844 C 452.789062 232.226562 464.175781 226.03125 475.660156 223.121094 C 486.722656 220.757812 499.628906 220.738281 510.179688 225.089844 " fill-opacity="1" fill-rule="nonzero"/><path fill="#0661b2" d="M 521.882812 171.988281 L 523.90625 172.339844 C 530.3125 173.527344 536.320312 175.203125 542.207031 178.023438 L 544.664062 179.1875 L 546.472656 180.066406 L 546.472656 181.519531 L 548.152344 181.789062 C 550.101562 182.242188 550.101562 182.242188 552.277344 183.695312 L 552.277344 185.148438 L 553.957031 185.785156 C 555.90625 186.601562 555.90625 186.601562 558.085938 188.054688 L 558.085938 189.507812 L 559.445312 190.050781 C 560.988281 190.957031 560.988281 190.957031 561.894531 192.5 L 562.441406 193.863281 L 563.890625 193.863281 C 573.496094 205.292969 579.511719 219.328125 582.308594 233.941406 C 583.808594 246.203125 583.144531 258.226562 579.859375 270.113281 L 579.449219 271.644531 C 574.214844 290.730469 564.527344 307.480469 550.828125 321.675781 L 549.226562 323.386719 C 544.625 328.199219 539.441406 332.203125 534.132812 336.199219 L 532.25 337.632812 C 517 348.792969 498.261719 354.714844 479.695312 357.257812 C 476.476562 357.566406 473.476562 357.550781 470.257812 357.257812 L 468.84375 357.167969 C 453.921875 356.238281 440.292969 351.46875 427.617188 343.597656 C 417.167969 336.1875 409.375 326.695312 404.027344 315.09375 C 403.601562 314.144531 403.179688 313.1875 402.757812 312.234375 L 401.667969 309.847656 C 395.984375 295.921875 396.21875 279.804688 398.109375 265.140625 C 400.675781 246.585938 408.859375 230.164062 420.273438 215.472656 C 432.9375 199.546875 448.847656 186.03125 467.855469 178.386719 C 476.292969 175.191406 484.546875 172.980469 493.4375 171.589844 C 494.851562 171.363281 496.265625 171.117188 497.675781 170.867188 C 506.117188 169.472656 513.535156 170.515625 521.882812 171.988281 M 451.425781 208.8125 C 449.484375 210.152344 447.921875 211.757812 446.308594 213.46875 C 445.351562 213.980469 444.382812 214.464844 443.402344 214.921875 C 442.316406 215.890625 442.316406 215.890625 441.226562 217.101562 C 439.28125 219.105469 437.316406 220.972656 435.148438 222.730469 C 432.082031 225.34375 429.800781 228.378906 427.4375 231.625 L 426.585938 232.773438 C 419.558594 242.285156 414.261719 251.53125 410.742188 262.851562 L 410.011719 265.167969 C 408.339844 271.113281 408.042969 277.054688 407.839844 283.1875 L 407.695312 285.675781 C 407.351562 295.464844 409.109375 305.421875 413.554688 314.183594 C 414.515625 315.980469 415.523438 317.734375 416.546875 319.496094 L 417.535156 321.308594 C 421.839844 328.554688 429.082031 335.304688 436.144531 339.828125 L 438.324219 339.828125 L 438.324219 341.28125 C 450.769531 347.171875 462.976562 350.277344 476.792969 349.269531 C 492.289062 347.757812 507.242188 341.722656 520.085938 333.007812 C 524.800781 329.546875 529.15625 325.683594 533.40625 321.675781 L 535.027344 320.21875 C 545.578125 310.355469 553.902344 295.691406 558.132812 281.960938 C 560.09375 275.160156 561.285156 268.460938 561.714844 261.398438 L 561.832031 259.765625 C 562.269531 248.339844 559.335938 236.609375 554.035156 226.539062 C 553.015625 224.8125 551.945312 223.121094 550.828125 221.457031 L 549.960938 220.050781 C 549.328125 219.039062 548.632812 218.0625 547.925781 217.101562 L 546.472656 217.101562 L 546.109375 215.605469 C 544.519531 212.488281 542.03125 210.425781 539.214844 208.386719 L 537.761719 208.386719 L 537.761719 206.933594 L 534.859375 206.207031 L 534.859375 204.757812 C 522.058594 198.058594 510.179688 194.140625 495.585938 194.40625 C 479.175781 195.460938 465.472656 200.210938 451.425781 208.8125 M 358.480469 335.472656 C 359.457031 335.667969 360.4375 335.867188 361.414062 336.0625 C 373.398438 338.558594 383.738281 343.847656 393.320312 351.449219 L 394.648438 352.476562 C 395.6875 353.308594 396.6875 354.1875 397.675781 355.078125 L 397.675781 356.53125 L 399.128906 356.53125 C 408.304688 366.039062 413.730469 377.507812 416.980469 390.164062 C 420.355469 404.480469 419.480469 420.332031 415.277344 434.371094 C 409.394531 453.125 399.832031 468.664062 386.246094 482.84375 C 384.613281 484.34375 384.613281 484.34375 382.433594 485.070312 L 381.707031 487.246094 C 380.648438 488.210938 380.648438 488.210938 379.257812 489.199219 L 377.667969 490.34375 L 375.902344 491.605469 L 374.019531 493.027344 C 370.152344 495.929688 366.265625 498.4375 361.980469 500.679688 C 359.785156 501.851562 357.664062 503.121094 355.53125 504.402344 C 349.625 507.847656 343.5 509.964844 337.023438 512.074219 L 335.28125 512.652344 C 331.886719 513.730469 328.667969 514.402344 325.113281 514.6875 C 323.636719 514.808594 323.636719 514.808594 322.21875 515.203125 C 310.449219 518.105469 295.683594 516.65625 284.066406 513.640625 C 277.683594 511.738281 271.554688 509.050781 265.574219 506.128906 L 265.574219 504.675781 L 263.398438 504.675781 L 263.398438 503.222656 L 262.148438 503.007812 C 258.226562 501.796875 254.964844 498.351562 252.011719 495.597656 C 250.257812 493.703125 248.585938 491.75 246.945312 489.753906 C 246.007812 488.609375 246.007812 488.609375 244.527344 487.972656 C 243.769531 486.78125 243.046875 485.570312 242.347656 484.34375 L 241.175781 482.492188 C 234.296875 471.304688 230.75 458.96875 230.007812 445.855469 C 229.527344 428.558594 233.441406 410.992188 241.570312 395.699219 C 252.175781 376.511719 267.40625 360.941406 285.898438 349.269531 C 297.300781 342.5625 309.941406 337.914062 322.914062 335.472656 L 325.546875 334.976562 C 336.28125 333.269531 347.863281 333.019531 358.480469 335.472656 M 330.175781 345.640625 L 328.65625 345.96875 C 319.152344 348.078125 310.820312 351.289062 302.59375 356.53125 L 300.621094 357.710938 C 295.679688 360.710938 291.5625 364.203125 287.351562 368.152344 C 286.355469 369.019531 285.355469 369.878906 284.355469 370.738281 C 272.992188 380.691406 264.476562 392.554688 259.042969 406.640625 L 258.402344 408.269531 C 253.734375 420.605469 254.230469 432.886719 254.6875 445.855469 L 256.140625 445.855469 L 255.683594 446.988281 C 255.101562 450.800781 257.15625 454.742188 258.5 458.292969 C 261.640625 466.164062 267.199219 474.320312 273.558594 479.984375 L 275.011719 479.984375 L 275.011719 481.4375 C 276.089844 482.425781 276.089844 482.425781 277.460938 483.34375 L 278.835938 484.328125 L 280.089844 485.070312 L 281.542969 485.070312 L 281.542969 486.523438 C 284.4375 487.992188 287.34375 489.441406 290.253906 490.878906 L 291.953125 491.738281 C 302.179688 496.644531 313.933594 497.304688 325.09375 496.6875 C 340.878906 495.265625 355.070312 490 368.269531 481.273438 C 374.085938 477.164062 379.394531 472.476562 384.613281 467.640625 L 385.914062 466.480469 C 395.460938 457.589844 402.722656 444.910156 407.113281 432.78125 C 410.933594 420.136719 412.664062 406.039062 410.195312 392.945312 C 409.535156 390.414062 408.78125 388.015625 407.839844 385.578125 L 407.175781 383.785156 C 406.511719 382.148438 405.761719 380.609375 404.933594 379.042969 L 403.851562 376.96875 C 400.941406 371.683594 397.578125 367.328125 393.320312 363.066406 L 391.621094 361.367188 C 382.554688 352.765625 371.898438 348.03125 359.933594 344.914062 C 349.484375 343.082031 340.488281 343.382812 330.175781 345.640625 " fill-opacity="1" fill-rule="nonzero"/><path fill="#fefefe" d="M 495.296875 391.277344 C 503.570312 394.699219 511.09375 400.242188 516.851562 407.074219 C 522.886719 415.039062 526.285156 422.851562 527.601562 432.78125 C 528.289062 439.535156 526.652344 445.949219 524.152344 452.207031 C 522.242188 456.203125 519.558594 459.414062 516.101562 462.171875 C 511.296875 465.402344 505.042969 468 499.230469 468.496094 C 487.375 468.820312 478.296875 466.730469 467.796875 461.160156 C 464.566406 459.359375 461.902344 457.265625 459.371094 454.570312 L 458.054688 453.214844 C 452.710938 447.453125 449.332031 440.988281 447.03125 433.507812 L 446.535156 431.910156 C 445.007812 426.183594 444.921875 420.101562 446.082031 414.308594 C 447.890625 407.910156 450.65625 402.277344 455.199219 397.378906 C 459.355469 393.519531 463.933594 390.84375 469.398438 389.300781 C 478.203125 387.410156 486.804688 388.402344 495.296875 391.277344 M 310.394531 222.683594 C 311.035156 222.6875 311.671875 222.691406 312.332031 222.695312 C 319.824219 222.835938 326.039062 224.351562 332.550781 228.140625 C 336.105469 230.488281 339.332031 233.152344 342.511719 235.984375 L 344.125 237.414062 C 349.328125 242.304688 353.277344 248.359375 355.738281 255.070312 C 358.039062 263.070312 358.328125 271.28125 356.59375 279.425781 C 354.964844 285.28125 352.539062 290.347656 348.394531 294.839844 C 344.0625 298.863281 339.007812 301.878906 333.222656 303.203125 C 323.324219 304.554688 314.738281 303.375 305.417969 299.730469 C 297.136719 296.03125 290.824219 289.585938 285.398438 282.445312 C 281.378906 276.832031 279.132812 270.328125 278.121094 263.523438 C 277.285156 254.933594 277.84375 246.988281 280.816406 238.886719 C 282.230469 236.359375 283.839844 234.378906 285.898438 232.351562 L 287.3125 230.933594 C 291.597656 226.921875 295.972656 224.578125 301.6875 223.207031 C 304.582031 222.683594 307.457031 222.664062 310.394531 222.683594 " fill-opacity="1" fill-rule="nonzero"/><path fill="#0661b2" d="M 318.558594 190.230469 L 320.820312 190.871094 C 329.40625 193.480469 336.652344 198.207031 343.964844 203.304688 L 345.667969 204.476562 L 346.867188 205.484375 L 346.867188 206.933594 L 348.058594 207.410156 C 350.363281 208.726562 352.097656 210.503906 353.945312 212.382812 L 355.058594 213.480469 C 355.988281 214.414062 356.875 215.390625 357.753906 216.375 L 357.753906 217.828125 L 359.207031 217.828125 C 366.753906 226.5 372.261719 238.714844 374.535156 249.863281 C 375.320312 254.425781 375.390625 258.910156 375.355469 263.535156 L 375.375 265.929688 C 375.351562 274.867188 374.019531 283.085938 370.09375 291.175781 C 365.382812 299.183594 359.578125 306.242188 351.496094 311.007812 C 343.128906 315.671875 333.113281 318.558594 323.550781 318.996094 C 309.65625 318.554688 295.34375 313.695312 283.519531 306.5 C 271.429688 298.753906 261.4375 287.988281 254.441406 275.457031 C 248.25 262.933594 244.566406 249.605469 245.40625 235.546875 C 246.503906 226.285156 249.445312 216.890625 254.6875 209.113281 C 256.722656 206.535156 258.90625 204.179688 261.21875 201.851562 L 262.683594 200.3125 C 268.457031 194.65625 276.214844 190.839844 283.992188 188.78125 C 295.125 186.808594 307.726562 186.894531 318.558594 190.230469 M 279.367188 210.839844 C 274.621094 214.066406 270.28125 218.160156 267.027344 222.910156 L 267.027344 225.089844 L 265.574219 225.089844 C 263.363281 229.433594 261.945312 233.835938 260.675781 238.523438 L 260.183594 240.273438 C 258.976562 244.882812 258.464844 249.257812 259.464844 253.957031 L 260.039062 255.589844 C 260.789062 257.84375 261.410156 260.019531 261.855469 262.351562 C 264.203125 273.207031 269.84375 282.945312 277.1875 291.175781 C 285.953125 300.503906 296.441406 307.664062 308.714844 311.417969 C 317.433594 313.847656 326.964844 314.074219 335.800781 312.050781 C 344.863281 309.285156 352.113281 304.710938 358.730469 297.902344 C 363.191406 292.738281 366.324219 285.90625 367.667969 279.234375 C 368.183594 275.402344 368.15625 271.566406 368.144531 267.710938 L 368.179688 265.183594 C 368.183594 257.300781 366.757812 250.230469 363.0625 243.246094 L 362.296875 241.761719 C 355.757812 229.347656 347.210938 220.007812 335.480469 212.441406 C 326.539062 206.929688 315.820312 202.875 305.230469 202.507812 C 296.207031 202.839844 287.058594 206.167969 279.367188 210.839844 " fill-opacity="1" fill-rule="nonzero"/><path fill="#bce7f2" d="M 519.753906 210.703125 C 528.324219 214.539062 535.460938 220.199219 541.320312 227.546875 C 545.429688 233.429688 547.40625 240.050781 549.375 246.875 L 549.96875 248.84375 C 552.269531 258.023438 551.332031 268.253906 548.84375 277.273438 C 544.464844 291.992188 537.773438 303.695312 527.140625 314.820312 C 526.203125 315.8125 525.273438 316.8125 524.355469 317.824219 C 515.339844 327.390625 502.792969 332.960938 490.40625 336.875 C 478.980469 340.121094 468.121094 340.957031 456.539062 338.078125 C 446.058594 335.144531 437.957031 329.929688 430.066406 322.445312 C 424.214844 316.332031 421.164062 309.59375 419.082031 301.464844 C 415.925781 287.445312 416.816406 272.25 420.992188 258.539062 C 425.707031 245.746094 434.761719 234.117188 444.855469 225.089844 C 447.191406 223.25 449.613281 221.613281 452.113281 220.007812 L 453.910156 218.746094 C 472.683594 205.941406 498.65625 201.78125 519.753906 210.703125 M 452.113281 233.804688 C 448.992188 235.96875 446.015625 238.300781 443.402344 241.066406 L 443.402344 242.519531 L 441.953125 242.519531 C 433.222656 252.0625 427.28125 263.15625 424.394531 275.789062 C 422.578125 286.019531 422.71875 296.195312 426.019531 306.121094 C 429.210938 314.230469 434.320312 320.441406 440.820312 326.132812 C 447.273438 331.035156 455.148438 333.441406 463.105469 334.542969 C 473.738281 335.578125 484.398438 333.917969 494.210938 329.664062 C 506.511719 323.789062 516.589844 315.417969 524.601562 304.359375 C 529.582031 296.980469 532.554688 289.523438 534.859375 281.007812 L 535.402344 279.167969 C 537.351562 271.496094 537.347656 261.933594 535.265625 254.320312 C 532.308594 246.203125 527.6875 237.308594 521.066406 231.625 C 514.421875 226.753906 507.402344 223.628906 499.292969 222.183594 C 481.53125 220.847656 467.179688 224.308594 452.113281 233.804688 " fill-opacity="1" fill-rule="nonzero"/><path fill="#0661b2" d="M 787.085938 543.074219 L 788.789062 543.070312 C 790.351562 543.164062 790.351562 543.164062 792.53125 543.890625 C 793.535156 558.371094 793.285156 572.863281 793.121094 587.367188 C 793.078125 590.964844 793.054688 594.5625 793.03125 598.160156 C 793.011719 600.941406 792.980469 603.726562 792.949219 606.511719 C 792.933594 607.839844 792.921875 609.167969 792.917969 610.496094 C 792.90625 612.335938 792.882812 614.175781 792.855469 616.015625 L 792.855469 617.675781 C 792.824219 619.183594 792.824219 619.183594 792.53125 621.59375 C 790.351562 623.046875 790.351562 623.046875 788.601562 623.265625 L 786.679688 623.273438 L 784.746094 623.3125 L 783.09375 623.046875 L 781.640625 620.867188 C 781.550781 618.917969 781.550781 618.917969 781.640625 617.238281 C 779.710938 616.871094 779.710938 616.871094 777.289062 617.238281 C 775.726562 618.242188 774.324219 619.375 772.875 620.535156 C 769.367188 623.199219 764.898438 623.507812 760.664062 624.234375 C 753.773438 625.050781 747.261719 623.835938 740.78125 621.4375 C 736.28125 619.378906 732.941406 617 729.828125 613.132812 C 726.386719 608.128906 724.980469 602.902344 724.300781 596.902344 C 723.804688 590.085938 724.808594 584.089844 727.703125 577.886719 C 729.710938 574.125 731.707031 571.089844 735.1875 568.582031 C 741.273438 565.019531 746.167969 563.40625 753.167969 563.363281 L 755.285156 563.363281 L 757.359375 563.335938 C 762.765625 563.324219 768.042969 563.597656 772.949219 566.046875 L 774.65625 567.21875 C 776.34375 568.410156 776.34375 568.410156 778.011719 569.308594 L 780.917969 569.308594 L 781.640625 543.890625 C 783.683594 543.210938 784.972656 543.066406 787.085938 543.074219 M 508.820312 375.324219 L 510.71875 375.832031 C 514.398438 376.894531 517.402344 378.265625 520.5625 380.4375 C 521.886719 381.351562 521.886719 381.351562 523.972656 381.949219 L 523.972656 383.402344 L 526.148438 383.402344 L 526.148438 384.855469 L 527.316406 385.011719 C 529.765625 385.8125 531.589844 387.316406 533.589844 388.894531 L 534.863281 389.894531 C 545.910156 398.691406 553.960938 410.402344 559.539062 423.34375 C 560.859375 426.902344 561.734375 430.5 562.441406 434.234375 C 562.546875 434.792969 562.65625 435.351562 562.765625 435.925781 C 563.964844 444.082031 563.75 453.121094 561.714844 461.105469 L 561.175781 463.355469 C 558.953125 471.601562 554.839844 478.453125 548.921875 484.570312 C 542.074219 491.308594 533.515625 495.46875 524.28125 497.910156 C 512.277344 500.410156 498.621094 499.59375 486.953125 495.960938 C 484.800781 495.148438 482.679688 494.269531 480.558594 493.375 L 478.878906 492.679688 C 474.886719 491.015625 474.886719 491.015625 473.164062 490.152344 L 473.164062 488.699219 L 471.4375 488.382812 C 469.535156 487.972656 469.535156 487.972656 468.082031 487.246094 L 468.082031 485.796875 L 466.832031 485.582031 C 464.816406 484.957031 463.597656 483.992188 461.957031 482.664062 L 460.21875 481.261719 L 458.644531 479.984375 L 456.742188 478.578125 C 454.6875 476.792969 452.964844 474.835938 451.207031 472.765625 C 450.4375 471.859375 449.652344 470.96875 448.847656 470.097656 C 439.667969 460.0625 435.183594 447.308594 432.121094 434.320312 C 429.898438 423.945312 431.539062 414.429688 434.652344 404.441406 C 438.097656 395.277344 443.9375 387.898438 451.433594 381.675781 C 459.292969 375.695312 469.140625 372.9375 478.808594 371.261719 C 488.871094 369.984375 499.167969 372.65625 508.820312 375.324219 M 458.226562 383.84375 C 455.515625 385.402344 453.089844 387.246094 450.664062 389.210938 L 448.886719 390.5 C 446.722656 392.382812 445.234375 394.472656 443.722656 396.882812 L 442.863281 398.234375 C 439.558594 403.59375 437.117188 409.460938 436.765625 415.808594 C 436.746094 418.019531 436.738281 420.226562 436.734375 422.433594 L 436.707031 424.738281 C 436.699219 429.320312 437.078125 433.453125 438.324219 437.867188 L 438.972656 440.179688 C 442.011719 449.5 447.015625 458.046875 454.292969 464.734375 C 456.152344 466.597656 458.007812 468.457031 459.824219 470.363281 C 461.453125 472.136719 461.453125 472.136719 463.726562 472.722656 L 463.726562 474.175781 C 465.160156 475.238281 465.160156 475.238281 466.992188 476.265625 L 468.832031 477.347656 L 470.984375 478.535156 L 472.257812 479.242188 C 476.207031 481.339844 480.246094 482.582031 484.550781 483.753906 L 486.582031 484.324219 C 495.160156 486.714844 503.210938 487.539062 511.949219 485.433594 C 520.703125 482.808594 528.699219 478.960938 535.289062 472.515625 C 540.238281 466.929688 544.207031 460.808594 545.78125 453.472656 C 547.609375 444.046875 547.429688 433.542969 544.53125 424.371094 C 541.578125 416.753906 537.738281 410.132812 532.679688 403.734375 L 530.964844 401.542969 C 527.535156 397.105469 527.535156 397.105469 523.246094 393.566406 L 521.792969 393.566406 L 521.066406 391.390625 C 519.675781 390.40625 519.675781 390.40625 517.984375 389.574219 C 516.082031 388.570312 514.234375 387.574219 512.402344 386.441406 C 510.984375 385.460938 510.984375 385.460938 509.453125 385.578125 L 509.453125 384.128906 C 507.414062 383.429688 505.375 382.730469 503.332031 382.039062 L 501.609375 381.445312 C 486.746094 376.429688 472.34375 376.5625 458.226562 383.84375 " fill-opacity="1" fill-rule="nonzero"/><path fill="#bce7f2" d="M 371.6875 359.121094 C 380.566406 363.671875 388.425781 370.828125 394.046875 379.042969 C 398.808594 386.875 401.59375 396.082031 402.117188 405.25 C 402.210938 409.484375 401.628906 413.476562 400.804688 417.625 L 400.410156 419.644531 C 397.714844 432.789062 392.816406 444.464844 383.886719 454.570312 L 382.324219 456.394531 C 372.835938 467.273438 361.089844 476.394531 347.394531 481.304688 C 335.414062 485.242188 322.554688 486.734375 310.015625 484.574219 C 300.648438 482.550781 291.988281 478.601562 284.445312 472.722656 L 282.179688 471.089844 C 275.550781 464.75 271.367188 456.546875 268.429688 447.945312 C 265.464844 437.609375 265 425.714844 267.390625 415.21875 C 271.648438 400.425781 279.398438 387.492188 290.359375 376.675781 C 300.890625 366.796875 314.003906 359.519531 328.042969 356.175781 C 342.644531 352.9375 357.867188 352.957031 371.6875 359.121094 M 313.480469 371.054688 C 310.980469 372.90625 308.597656 374.863281 306.222656 376.867188 L 304.195312 378.402344 L 302.59375 379.769531 L 302.59375 381.222656 L 301.363281 381.679688 C 299.089844 383.03125 297.710938 384.902344 296.152344 386.988281 L 295.183594 388.269531 C 288.574219 397.199219 284.183594 407.402344 282.675781 418.417969 C 281.6875 428.140625 282.847656 437.863281 286.667969 446.898438 C 289.792969 453.738281 294.273438 459.4375 300.324219 463.964844 C 306.386719 467.875 313.484375 470.894531 320.730469 471.433594 C 331.207031 471.796875 341.226562 471.71875 351.222656 468.367188 L 353.546875 467.59375 C 365.339844 463.152344 375.175781 454.828125 383.300781 445.351562 C 390.996094 435.519531 395.65625 423.929688 397.445312 411.597656 C 398.429688 402.832031 396.699219 394.269531 393.53125 386.058594 C 390.449219 379.699219 385.625 373.851562 379.871094 369.746094 C 377.855469 368.433594 375.808594 367.175781 373.722656 365.972656 L 371.953125 364.921875 C 364.953125 361.074219 357.214844 359.800781 349.277344 359.855469 C 336.742188 360.300781 324.039062 364.34375 313.480469 371.054688 " fill-opacity="1" fill-rule="nonzero"/><path fill="#0661b2" d="M 400.578125 565.675781 C 403.441406 567.128906 406.121094 568.671875 408.5625 570.761719 L 409.289062 572.9375 L 411.46875 573.664062 C 413.929688 576.808594 415.5625 580.203125 416.265625 584.132812 C 416.460938 586.765625 416.535156 589.363281 416.546875 592.003906 L 416.628906 594.703125 C 416.765625 601.355469 415.820312 606.121094 412.917969 612.152344 C 410.414062 615.785156 407.621094 618.4375 403.691406 620.398438 C 395.511719 623.847656 386.820312 625.160156 377.980469 624.117188 C 371.402344 623.03125 365.761719 621.226562 359.933594 617.964844 L 359.933594 616.511719 L 358.621094 615.984375 C 356.683594 614.859375 355.964844 613.792969 354.804688 611.882812 C 351.667969 606.339844 350.40625 600.75 350.226562 594.40625 C 350.410156 587.996094 351.492188 581.945312 354.625 576.296875 C 357.5 571.921875 361.097656 568.671875 365.695312 566.175781 C 375.84375 561.664062 390.230469 561.9375 400.578125 565.675781 M 57.335938 548.003906 L 59.179688 547.988281 C 60.464844 547.984375 61.746094 547.980469 63.027344 547.980469 C 64.953125 547.976562 66.878906 547.949219 68.804688 547.921875 C 79.136719 547.851562 88.121094 549.324219 97.378906 554.273438 C 101.441406 556.8125 104.804688 559.65625 107.433594 563.679688 C 108.070312 565.675781 108.070312 565.675781 108.03125 567.148438 L 107.34375 568.582031 C 105.3125 569.527344 105.3125 569.527344 102.761719 570.261719 L 100.230469 571.023438 C 97.90625 571.488281 97.90625 571.488281 96.226562 571.320312 L 95.003906 570.761719 L 93.824219 568.808594 C 92.125 566.027344 89.738281 564.738281 86.964844 563.128906 L 84.84375 562.046875 L 83.472656 561.292969 C 78.699219 558.863281 74.257812 558.640625 68.964844 558.550781 L 66.53125 558.46875 C 56.308594 558.101562 56.308594 558.101562 46.734375 561.183594 L 44.582031 562.289062 C 42.699219 563.527344 41.691406 564.460938 40.566406 566.402344 C 40.101562 568.007812 40.101562 568.007812 39.976562 569.671875 L 39.78125 571.328125 C 39.773438 572.9375 39.773438 572.9375 40.285156 574.414062 C 41.765625 576.519531 43.410156 577.496094 45.648438 578.75 C 47.507812 579.347656 49.234375 579.8125 51.136719 580.203125 L 52.804688 580.558594 C 59.113281 581.84375 65.5 582.625 71.878906 583.46875 C 77.320312 584.195312 82.722656 585.003906 88.109375 586.054688 C 88.6875 586.164062 89.269531 586.273438 89.867188 586.386719 C 92.957031 587.015625 95.296875 587.886719 97.90625 589.640625 C 98.820312 590.074219 99.742188 590.480469 100.675781 590.867188 L 102.988281 591.820312 L 102.988281 593.273438 L 104.574219 593.636719 C 106.714844 594.777344 107.320312 595.46875 108.613281 597.449219 C 110.054688 599.972656 110.800781 601.953125 110.972656 604.890625 L 111.109375 606.707031 C 111.300781 611.015625 110.804688 614.167969 108.84375 618.015625 L 108.070312 619.417969 L 107.070312 621.414062 C 104.097656 625.53125 99.925781 627.90625 95.398438 630.046875 C 82.679688 634.929688 66.640625 634.53125 53.363281 632.617188 C 44.765625 631.105469 36.863281 628.503906 29.933594 623.085938 C 27.238281 620.730469 24.65625 618.402344 23.265625 615.046875 L 23.144531 613.605469 C 23.921875 612.4375 23.921875 612.4375 25.324219 611.429688 C 27.3125 610.554688 27.3125 610.554688 29.589844 609.792969 L 31.851562 609.011719 C 34.035156 608.523438 34.035156 608.523438 36.066406 608.691406 L 37.664062 609.25 C 38.617188 611.109375 38.617188 611.109375 39.113281 612.878906 L 40.566406 612.878906 C 41.792969 614.074219 43 615.285156 44.195312 616.511719 C 46.519531 618.527344 48.746094 619.355469 51.679688 620.234375 L 54.078125 620.964844 C 63.722656 623.4375 75.429688 623.523438 85.054688 620.859375 C 89.046875 619.402344 92.914062 617.601562 95.730469 614.332031 C 96.625 611.640625 96.96875 609.136719 96.457031 606.34375 C 94.730469 604.257812 94.730469 604.257812 92.828125 602.714844 L 92.828125 601.261719 L 91.421875 601.035156 C 89.601562 600.625 87.988281 600.125 86.238281 599.503906 C 82.699219 598.3125 79.171875 597.585938 75.496094 596.949219 L 73.441406 596.578125 C 68.683594 595.746094 63.914062 595.054688 59.128906 594.398438 C 39.855469 591.726562 39.855469 591.726562 32.628906 586.601562 C 31.292969 585.527344 31.292969 585.527344 30.40625 584.558594 L 30.40625 583.105469 L 29.042969 582.605469 C 27.5 581.652344 27.5 581.652344 26.695312 580.203125 C 25.800781 577.1875 25.78125 574.347656 25.777344 571.214844 L 25.722656 569.398438 C 25.710938 566.410156 25.890625 564.085938 27.335938 561.433594 C 30.136719 557.460938 33.296875 554.484375 37.617188 552.207031 C 44.09375 549.398438 50.289062 548.023438 57.335938 548.003906 M 542.117188 553.332031 L 542.117188 554.785156 L 543.476562 555.101562 C 545.019531 555.511719 545.019531 555.511719 546.472656 556.238281 L 546.472656 557.6875 L 547.777344 558.265625 C 549.464844 559.191406 550.46875 560.105469 551.734375 561.546875 L 552.878906 562.808594 C 553.730469 564.226562 553.730469 564.226562 553.855469 566.207031 L 553.730469 567.855469 C 552.359375 568.488281 550.984375 569.105469 549.601562 569.71875 L 547.28125 570.761719 C 545.019531 571.488281 545.019531 571.488281 543.144531 571.550781 C 541.390625 570.761719 541.390625 570.761719 540.5625 569.6875 L 539.707031 568.371094 C 538.359375 566.3125 537.199219 565.132812 535.046875 563.9375 C 534.054688 563.445312 533.054688 562.964844 532.046875 562.5 L 530.546875 561.75 C 527.390625 560.226562 524.589844 559.484375 521.066406 559.140625 L 518.84375 558.734375 C 513 558.082031 507.261719 558.171875 501.46875 559.140625 L 499.277344 559.066406 C 495.972656 559.179688 493.753906 560.671875 490.945312 562.308594 C 488.808594 563.710938 487.445312 564.863281 486.226562 567.128906 C 485.382812 569.605469 485.382812 569.605469 485.503906 572.214844 C 486.773438 574.914062 488.097656 576.332031 490.449219 578.160156 C 499.300781 582.6875 511.742188 582.773438 521.46875 584.105469 C 538.453125 586.441406 538.453125 586.441406 545.335938 590.050781 L 547.105469 590.960938 C 548.648438 591.820312 548.648438 591.820312 550.828125 593.273438 L 550.828125 594.726562 L 553.003906 595.453125 C 555.054688 598.105469 556.144531 600.144531 556.632812 603.441406 C 557.070312 610.023438 556.40625 614.582031 553.59375 620.503906 L 553.003906 621.59375 L 551.554688 621.59375 L 551.554688 623.046875 C 548.410156 626.699219 544.339844 628.523438 539.941406 630.308594 C 525.183594 634.496094 508.042969 634.804688 493.160156 631.144531 C 485.367188 628.910156 479.207031 625.933594 473.265625 620.355469 C 471.285156 618.234375 470.035156 616.226562 468.808594 613.605469 C 470.101562 612.054688 471.101562 611.378906 472.976562 610.554688 L 475.25 609.792969 L 477.511719 609.011719 C 479.695312 608.523438 479.695312 608.523438 481.617188 608.628906 C 483.324219 609.25 483.324219 609.25 484.789062 610.539062 L 486.09375 612.109375 L 487.421875 613.671875 L 488.40625 615.058594 L 488.40625 616.511719 L 491.308594 617.238281 L 491.308594 618.691406 C 502.453125 622.777344 514.617188 623.5625 526.378906 621.957031 C 531.226562 621.035156 535.410156 619.734375 539.214844 616.511719 C 541.039062 614.882812 541.039062 614.882812 542.117188 612.878906 C 542.757812 610.320312 543.035156 608.527344 542.359375 605.96875 C 541.5 604.050781 541.5 604.050781 539.65625 602.910156 L 537.582031 601.851562 C 536.902344 601.496094 536.226562 601.140625 535.527344 600.777344 C 531.304688 598.847656 527.207031 597.964844 522.65625 597.265625 C 521.480469 597.082031 520.300781 596.890625 519.125 596.703125 L 517.539062 596.453125 C 515.914062 596.164062 514.324219 595.800781 512.722656 595.40625 C 510.128906 594.78125 507.550781 594.515625 504.902344 594.257812 C 496.039062 593.390625 487.539062 591.945312 479.695312 587.464844 L 479.695312 586.011719 L 478.0625 585.511719 C 476.066406 584.558594 476.066406 584.558594 474.480469 582.96875 C 472.398438 579.742188 471.800781 577.207031 471.550781 573.433594 C 471.363281 565.855469 471.363281 565.855469 472.527344 562.816406 C 475.128906 558.570312 477.972656 555.199219 482.328125 552.695312 C 500.433594 544.101562 523.972656 546.140625 542.117188 553.332031 M 151.4375 563.363281 L 153.894531 563.335938 C 159.871094 563.324219 165.726562 563.574219 171.304688 565.894531 C 173.820312 567.472656 176.007812 569.015625 178.113281 571.125 C 181.960938 580.109375 180.851562 591.089844 180.800781 600.652344 C 180.789062 603.28125 180.789062 605.910156 180.789062 608.539062 C 180.785156 610.210938 180.78125 611.878906 180.773438 613.550781 L 180.773438 615.933594 L 180.757812 618.125 L 180.75 620.054688 C 180.652344 621.59375 180.652344 621.59375 179.925781 623.046875 C 171.839844 623.210938 171.839844 623.210938 169.039062 622.320312 C 168.039062 620.460938 168.039062 620.460938 167.585938 618.691406 C 164.917969 618.964844 162.863281 619.5625 160.511719 620.777344 C 153.867188 623.863281 145.027344 625 137.738281 624.816406 C 133.027344 624.101562 128.519531 622.445312 124.039062 620.867188 L 124.039062 619.417969 L 122.765625 619.371094 L 121.132812 618.691406 C 118.824219 615.1875 117.652344 612.5625 117.324219 608.386719 C 117.546875 604.964844 118.15625 602.160156 119.683594 599.082031 C 122.292969 595.457031 125.710938 593.0625 129.746094 591.230469 C 140.957031 586.980469 152.441406 585.792969 164.324219 584.785156 C 166.132812 584.660156 166.132812 584.660156 167.585938 583.832031 C 167.765625 581.753906 167.886719 580.066406 167.585938 578.023438 C 166.390625 575.808594 164.78125 574.183594 162.636719 572.835938 C 159.332031 571.539062 155.617188 571.976562 152.117188 571.984375 L 149.664062 571.949219 C 145.15625 571.949219 141.765625 572.121094 137.828125 574.390625 C 136.480469 575.507812 136.480469 575.507812 135.425781 576.707031 C 134.171875 577.851562 134.171875 577.851562 132.746094 578.75 C 130.265625 579.199219 127.972656 579.183594 125.488281 578.75 C 123.820312 578 123.820312 578 122.585938 577.296875 C 122.839844 575.070312 123.210938 573.804688 124.554688 571.984375 C 127.871094 568.632812 130.800781 566.320312 135.246094 564.703125 C 140.617188 563.320312 145.921875 563.363281 151.4375 563.363281 M 597.054688 563.363281 L 599.519531 563.335938 C 606.472656 563.324219 613.109375 563.792969 619.417969 566.949219 L 621.574219 567.980469 C 623.410156 569.308594 623.410156 569.308594 624.660156 571.179688 C 627.027344 577.515625 627.257812 583.773438 627.234375 590.480469 L 627.238281 593.175781 C 627.238281 595.039062 627.234375 596.90625 627.230469 598.769531 C 627.222656 601.636719 627.230469 604.5 627.238281 607.367188 C 627.238281 609.179688 627.234375 610.996094 627.234375 612.8125 L 627.242188 615.417969 L 627.226562 617.8125 C 627.226562 618.507812 627.226562 619.207031 627.222656 619.925781 L 627.039062 621.59375 L 625.589844 623.046875 C 623.699219 623.1875 623.699219 623.1875 621.503906 623.136719 L 619.296875 623.097656 L 617.605469 623.046875 L 614.699219 617.964844 L 609.621094 617.964844 L 609.621094 619.417969 C 608.171875 620.015625 606.71875 620.605469 605.265625 621.1875 L 602.816406 622.179688 C 597.789062 623.835938 592.765625 623.90625 587.527344 623.910156 L 585.777344 623.9375 C 580.398438 623.949219 575.355469 623.09375 570.425781 620.867188 L 570.425781 619.417969 L 568.246094 619.417969 C 565.765625 615.332031 564.632812 612.363281 564.4375 607.570312 C 564.492188 604.75 564.839844 602.339844 565.957031 599.742188 C 567.976562 596.40625 570.933594 594.316406 574.195312 592.277344 C 585.875 586.246094 600.359375 585.320312 613.207031 584.058594 L 614.699219 583.832031 L 615.425781 583.105469 C 615.570312 580.972656 615.570312 579.207031 614.925781 577.160156 C 613.683594 575.441406 612.164062 574.71875 610.34375 573.664062 L 610.34375 572.214844 C 607.441406 572.160156 604.535156 572.117188 601.632812 572.09375 C 600.644531 572.082031 599.660156 572.066406 598.671875 572.050781 C 592.328125 571.777344 592.328125 571.777344 586.21875 573.164062 C 584.453125 574.246094 583.3125 575.144531 581.992188 576.707031 C 580.761719 577.855469 580.761719 577.855469 579.132812 578.75 C 575.714844 579.121094 572.398438 579.003906 568.972656 578.75 C 568.800781 577.160156 568.800781 577.160156 568.972656 575.117188 C 571.175781 571.632812 574.039062 568.746094 577.5625 566.605469 C 584.03125 563.566406 590.007812 563.367188 597.054688 563.363281 M 309.851562 547.523438 C 310.507812 547.535156 311.164062 547.546875 311.835938 547.558594 C 319.453125 547.964844 327.648438 550.175781 334.257812 554.011719 C 335.332031 554.730469 336.390625 555.472656 337.433594 556.238281 L 338.871094 557.277344 C 341.984375 559.730469 344.625 562.695312 346.140625 566.402344 L 345.417969 568.582031 C 342.582031 570.0625 339.425781 570.667969 336.296875 571.214844 C 333.804688 570.761719 333.804688 570.761719 332.554688 569.796875 C 331.617188 568.914062 330.683594 568.027344 329.753906 567.140625 C 325.410156 563.523438 319.625 560.78125 314.113281 559.550781 C 306.261719 558.527344 297.640625 557.933594 290.117188 560.683594 C 284.460938 563.269531 279.425781 566.355469 275.421875 571.1875 C 271.925781 576.558594 270.171875 582.78125 269.78125 589.132812 C 269.699219 595.191406 270.113281 600.285156 272.90625 605.722656 C 273.78125 607.1875 274.722656 608.605469 275.738281 609.976562 L 276.734375 611.335938 C 279.828125 615.238281 283.324219 617.601562 287.890625 619.53125 C 296.132812 622.652344 304.472656 623.046875 313.171875 622.011719 C 319.019531 620.859375 323.863281 618.488281 328.722656 615.058594 C 329.597656 614.210938 330.460938 613.347656 331.308594 612.472656 C 332.460938 611.40625 332.460938 611.40625 333.804688 610.703125 C 337.503906 610.65625 340.710938 611.710938 344.101562 613.109375 L 345.417969 614.332031 C 345.6875 616.003906 345.6875 616.003906 345.417969 617.964844 C 341.871094 622.941406 336.855469 626.511719 331.410156 629.160156 C 322.980469 632.929688 314.273438 633.71875 305.175781 633.578125 L 303.597656 633.5625 C 291.765625 633.445312 282.21875 631.671875 271.878906 625.667969 L 269.929688 624.5 L 269.929688 623.046875 L 268.628906 622.472656 C 265.101562 620.539062 262.816406 617.183594 260.726562 613.820312 C 256.375 605.722656 255.042969 597.417969 255.109375 588.324219 C 255.347656 580.613281 256.949219 573.582031 260.675781 566.765625 C 264.113281 561.433594 267.617188 557.679688 273.203125 554.640625 C 284.949219 548.609375 296.777344 547.207031 309.851562 547.523438 " fill-opacity="1" fill-rule="nonzero"/><path fill="#fefefe" d="M 770.339844 572.902344 C 773.445312 574.171875 776.132812 575.914062 778.738281 578.023438 L 780.335938 579.261719 C 781.640625 580.925781 781.640625 580.925781 782.109375 583.503906 C 782.167969 584.519531 782.207031 585.539062 782.230469 586.554688 L 782.300781 588.1875 C 782.773438 602.769531 782.773438 602.769531 780.917969 607.796875 C 779.535156 608.871094 778.082031 609.839844 776.5625 610.703125 L 774.972656 611.640625 C 770.289062 614.339844 766.316406 615.964844 760.859375 615.984375 L 759.140625 615.964844 L 757.421875 615.984375 C 753.199219 615.96875 749.945312 615.21875 746.167969 613.242188 L 744.625 612.152344 L 744.625 610.703125 L 743.316406 610.109375 C 741.183594 608.957031 739.863281 607.613281 738.332031 605.75 C 736.523438 602.78125 736.21875 599.589844 735.914062 596.175781 L 735.757812 594.46875 C 735.570312 590.199219 736.464844 586.320312 738.09375 582.378906 C 739.589844 580.109375 739.589844 580.109375 740.996094 578.75 L 742.445312 578.75 L 742.445312 577.296875 C 750.890625 571.042969 760.328125 569.816406 770.339844 572.902344 M 383.792969 571.125 L 385.527344 571.132812 C 389.617188 571.246094 392.757812 571.964844 396.292969 574.140625 L 397.675781 575.117188 L 399.71875 576.433594 C 402.1875 578.90625 404.230469 581.820312 405.390625 585.140625 C 406.398438 591.125 406.320312 598.425781 404.207031 604.164062 C 401.773438 608.855469 397.664062 612.164062 393.320312 615.058594 C 389.703125 615.75 386.109375 615.9375 382.433594 615.964844 L 380.953125 616.011719 C 377.332031 616.039062 374.75 615.25 371.546875 613.605469 C 367.773438 611.226562 365.359375 608.25 363.246094 604.347656 C 361.332031 600.167969 360.472656 596.414062 360.660156 591.820312 C 361.140625 587.398438 362.457031 583.136719 365.015625 579.476562 C 368.191406 575.988281 371.3125 573.457031 375.78125 571.902344 C 378.449219 571.195312 381.042969 571.101562 383.792969 571.125 " fill-opacity="1" fill-rule="nonzero"/><path fill="#0661b2" d="M 224.019531 563.273438 L 226.085938 563.234375 C 231.21875 563.234375 236.214844 563.851562 240.753906 566.417969 C 243.328125 568.335938 244.757812 570.664062 246.148438 573.476562 C 247.902344 578.675781 247.558594 584.289062 247.578125 589.703125 L 247.589844 592.453125 C 247.59375 594.367188 247.601562 596.277344 247.601562 598.191406 C 247.609375 600.644531 247.625 603.09375 247.644531 605.546875 C 247.660156 607.890625 247.664062 610.234375 247.667969 612.578125 L 247.695312 615.25 L 247.6875 617.710938 L 247.695312 619.882812 C 247.609375 620.449219 247.519531 621.011719 247.429688 621.59375 C 245.25 623.046875 245.25 623.046875 243.316406 623.214844 C 242.253906 623.199219 242.253906 623.199219 241.167969 623.183594 L 239.007812 623.167969 L 237.265625 623.046875 L 236.542969 622.320312 C 236.359375 620.484375 236.230469 618.671875 236.132812 616.828125 L 236.039062 615.089844 C 235.800781 610.191406 235.789062 605.304688 235.816406 600.398438 C 236.351562 589.238281 236.351562 589.238281 234.078125 578.5625 C 232.742188 576.28125 231.472656 575.128906 229.28125 573.664062 C 225.207031 571.738281 221.375 571.847656 216.945312 572.214844 C 212.851562 573.050781 208.914062 574.402344 205.332031 576.570312 C 202.53125 579.058594 202.53125 579.058594 200.976562 582.378906 C 200.917969 583.601562 200.894531 584.824219 200.90625 586.046875 L 200.910156 588.308594 L 200.929688 590.75 L 200.9375 593.261719 C 200.949219 596.808594 200.96875 600.359375 200.992188 603.910156 C 201.003906 606.496094 201.011719 609.085938 201.019531 611.675781 L 201.039062 614.113281 L 201.046875 616.378906 L 201.058594 618.375 C 200.980469 620.035156 200.71875 621.453125 200.25 623.046875 C 198.585938 623.105469 196.921875 623.148438 195.257812 623.183594 L 192.453125 623.261719 L 190.089844 623.046875 C 188.636719 620.867188 188.636719 620.867188 188.453125 618.546875 L 188.449219 615.644531 L 188.441406 614.039062 C 188.433594 612.292969 188.4375 610.542969 188.441406 608.792969 L 188.441406 605.148438 C 188.4375 602.605469 188.441406 600.058594 188.445312 597.515625 C 188.457031 594.246094 188.449219 590.980469 188.441406 587.714844 C 188.4375 585.207031 188.4375 582.699219 188.441406 580.191406 C 188.441406 578.988281 188.441406 577.78125 188.4375 576.578125 C 188.433594 574.894531 188.441406 573.214844 188.449219 571.535156 L 188.453125 568.632812 L 188.636719 566.402344 L 190.089844 564.949219 C 192.292969 564.808594 192.292969 564.808594 194.898438 564.859375 L 197.511719 564.898438 L 199.523438 564.949219 L 200.25 570.035156 L 206.054688 570.035156 L 206.101562 568.71875 L 206.78125 567.128906 C 208.519531 566.242188 210.039062 565.574219 211.863281 564.949219 L 213.726562 564.175781 C 217.179688 563.238281 220.457031 563.261719 224.019531 563.273438 " fill-opacity="1" fill-rule="nonzero"/><path fill="#bce7f2" d="M 323.640625 215.539062 C 335.089844 220.808594 344.460938 227.996094 351.949219 238.160156 L 353.394531 240.105469 C 357.742188 246.402344 360.410156 253.800781 361.382812 261.398438 C 361.898438 269.964844 361.234375 278.296875 357.710938 286.226562 C 354.539062 291.984375 349.929688 296.820312 344.554688 300.570312 C 338.179688 304.300781 331.253906 305.835938 323.914062 306.015625 C 314.964844 305.734375 306.234375 303.40625 298.539062 298.753906 C 296.691406 297.496094 294.921875 296.175781 293.15625 294.804688 L 291.136719 293.28125 C 282.925781 286.875 276.53125 278.550781 272.4375 268.933594 C 271.527344 266.449219 270.691406 263.9375 269.929688 261.398438 L 269.386719 259.691406 C 267.660156 253.335938 267.753906 246.109375 269.339844 239.75 C 271.695312 232.402344 275.191406 226.785156 280.816406 221.457031 C 285.996094 217.230469 291.898438 214.667969 298.417969 213.289062 C 306.917969 211.960938 315.636719 212.140625 323.640625 215.539062 M 292.222656 226.75 C 287.429688 230.066406 283.0625 234.648438 280.546875 239.933594 C 277.523438 247.703125 277.121094 255.878906 278.300781 264.101562 C 280.25 273.898438 283.859375 280.714844 290.253906 288.269531 C 295.828125 294.589844 301.753906 298.332031 309.625 301.285156 C 317.546875 303.867188 325.308594 304.460938 333.5625 303.070312 C 339.320312 301.515625 343.898438 298.789062 348.320312 294.804688 C 352.21875 290.773438 354.753906 286.394531 356.304688 281.007812 C 358.183594 273.253906 358.242188 265.304688 356.480469 257.527344 C 353.714844 248.503906 348.457031 241.847656 341.808594 235.300781 C 335.414062 229.425781 328.242188 225.410156 319.847656 223.214844 C 310.621094 221.824219 300.480469 222.105469 292.222656 226.75 " fill-opacity="1" fill-rule="nonzero"/><path fill="#0661b2" d="M 659.703125 564.226562 C 662.695312 564.058594 665.523438 564.101562 668.414062 564.949219 C 669.550781 567.226562 669.210938 569.652344 669.183594 572.148438 L 669.175781 573.910156 C 669.164062 576.390625 669.144531 578.875 669.121094 581.355469 C 669.074219 587.859375 669.078125 594.351562 669.410156 600.851562 C 669.433594 601.351562 669.457031 601.855469 669.476562 602.371094 C 669.644531 605.1875 670.136719 607.421875 671.316406 609.976562 L 672.042969 612.152344 C 674.863281 614 678.324219 614.898438 681.660156 615.214844 C 686.882812 615.390625 692.628906 615.5625 697.347656 613.054688 C 699.695312 611.410156 701.476562 610.050781 703.253906 607.796875 C 705.453125 603.050781 705.710938 598.574219 705.589844 593.417969 L 705.570312 591.21875 C 705.550781 588.921875 705.511719 586.628906 705.476562 584.332031 C 705.441406 582.023438 705.410156 579.714844 705.386719 577.40625 C 705.371094 575.972656 705.351562 574.542969 705.320312 573.109375 L 705.300781 571.148438 L 705.269531 569.429688 C 705.453125 567.632812 705.933594 566.480469 706.882812 564.949219 C 708.105469 564.363281 708.105469 564.363281 709.785156 564.226562 C 712.414062 564.453125 712.414062 564.453125 714.867188 564.949219 L 716.316406 566.402344 C 716.496094 567.953125 716.496094 567.953125 716.492188 569.902344 L 716.5 572.117188 L 716.484375 574.535156 L 716.484375 577.046875 C 716.480469 578.816406 716.476562 580.582031 716.464844 582.351562 C 716.453125 584.992188 716.453125 587.636719 716.453125 590.28125 C 716.4375 600.96875 716.152344 611.648438 715.589844 622.320312 L 706.882812 623.046875 C 705.898438 621.078125 706.109375 619.410156 706.15625 617.238281 C 704.203125 616.945312 702.980469 616.828125 701.074219 617.238281 C 699.589844 618.296875 699.589844 618.296875 698.125 619.644531 C 695.355469 621.980469 693.046875 622.9375 689.507812 623.726562 C 681.558594 625.097656 674.746094 624.566406 666.960938 622.320312 C 664.207031 620.96875 662.503906 619.453125 660.609375 617.101562 C 658.300781 613.519531 657.652344 609.820312 657.386719 605.597656 C 657.328125 603.066406 657.300781 600.53125 657.308594 597.996094 L 657.296875 595.203125 C 657.292969 593.265625 657.292969 591.324219 657.296875 589.386719 C 657.300781 586.902344 657.289062 584.417969 657.269531 581.933594 C 657.257812 579.554688 657.257812 577.179688 657.261719 574.804688 L 657.242188 572.097656 L 657.253906 569.605469 L 657.253906 567.40625 L 657.523438 565.675781 Z M 659.703125 564.226562 " fill-opacity="1" fill-rule="nonzero"/><path fill="#bce7f2" d="M 503.464844 390.480469 C 508.109375 392.378906 512.105469 394.75 515.988281 397.925781 L 517.789062 399.394531 C 526.335938 406.742188 532.519531 414.914062 536.378906 425.523438 C 538.640625 433.5625 539.136719 443.628906 537.125 451.792969 C 535.078125 457.972656 532.125 463.394531 527.28125 467.796875 C 522.476562 471.550781 517.417969 473.792969 511.632812 475.628906 L 510.015625 476.171875 C 503.597656 477.96875 496.0625 477.902344 489.578125 476.445312 C 479.5625 473.839844 470.820312 469.375 463 462.558594 L 461.65625 461.527344 C 455.289062 456.566406 451.074219 449.578125 447.914062 442.257812 C 444.546875 433.808594 443.542969 425.882812 444.128906 416.804688 C 445.007812 410.835938 447.46875 405.199219 450.664062 400.105469 C 454.667969 395.195312 459.25 391.382812 465.171875 389.101562 C 478.132812 384.644531 490.71875 385.566406 503.464844 390.480469 M 461.050781 392.886719 C 456.304688 396.15625 452.367188 400.011719 449.503906 405.046875 C 448.582031 406.988281 447.757812 408.972656 447.03125 410.996094 L 446.496094 412.433594 C 444.769531 417.972656 445.066406 424.109375 446.082031 429.746094 C 448.269531 438.644531 451.894531 446.207031 457.921875 453.117188 L 459.125 454.605469 C 464.726562 460.949219 473.351562 464.082031 481.066406 467.136719 C 487.894531 469.375 496.195312 469.023438 503.242188 468.007812 C 509.542969 466.417969 515 463.273438 519.773438 458.886719 C 524.003906 454.273438 525.972656 448.265625 527.375 442.269531 C 528.183594 434.34375 527.285156 426.65625 524.375 419.210938 C 519.953125 409.847656 513.523438 402.359375 505.101562 396.378906 C 498.453125 392.039062 491.3125 389.054688 483.324219 388.484375 C 475.253906 388.046875 468.117188 388.71875 461.050781 392.886719 " fill-opacity="1" fill-rule="nonzero"/><path fill="#0661b2" d="M 461.550781 563.5 L 461.550781 573.664062 L 457.011719 573.894531 C 452.144531 574.25 447.242188 574.738281 442.679688 576.570312 C 441.6875 577.515625 440.714844 578.480469 439.773438 579.476562 L 438.324219 579.476562 L 437.644531 581.199219 C 436.871094 583.105469 436.871094 583.105469 436.144531 584.558594 C 435.085938 592.414062 435.355469 600.390625 435.417969 608.296875 C 435.4375 610.78125 435.453125 613.265625 435.464844 615.746094 L 435.484375 617.464844 C 435.5 621.429688 435.5 621.429688 434.695312 623.046875 C 433.273438 623.085938 431.851562 623.117188 430.429688 623.136719 L 428.03125 623.1875 L 425.984375 623.046875 L 424.53125 621.59375 C 423.570312 615.832031 423.699219 610.023438 423.710938 604.195312 L 423.707031 601.070312 C 423.707031 598.898438 423.707031 596.730469 423.710938 594.558594 C 423.714844 591.777344 423.714844 589 423.710938 586.21875 C 423.707031 584.074219 423.707031 581.925781 423.710938 579.78125 C 423.710938 578.753906 423.707031 577.730469 423.707031 576.707031 C 423.707031 575.273438 423.707031 573.84375 423.710938 572.414062 L 423.714844 569.953125 C 423.792969 568.152344 424.007812 566.664062 424.53125 564.949219 C 426.210938 564.933594 427.890625 564.917969 429.566406 564.90625 L 432.398438 564.878906 L 434.695312 564.949219 L 435.417969 565.675781 C 435.703125 566.773438 435.957031 567.882812 436.191406 568.992188 L 436.578125 570.808594 L 436.871094 572.214844 C 438.230469 572.054688 438.230469 572.054688 439.773438 571.488281 C 441.171875 570.214844 441.171875 570.214844 442.496094 568.671875 C 444.734375 566.386719 446.558594 564.746094 449.625 563.78125 C 453.578125 563.148438 457.558594 563.382812 461.550781 563.5 M 640.132812 546.15625 L 642.734375 546.386719 L 645.351562 546.613281 L 647.363281 546.796875 C 647.949219 551.421875 648.195312 555.925781 648.195312 560.582031 L 648.203125 562.683594 C 648.207031 564.949219 648.210938 567.21875 648.210938 569.488281 L 648.21875 574.234375 C 648.222656 577.539062 648.222656 580.847656 648.222656 584.152344 C 648.222656 588.394531 648.234375 592.636719 648.246094 596.882812 C 648.253906 600.144531 648.257812 603.40625 648.253906 606.667969 C 648.253906 608.234375 648.257812 609.800781 648.265625 611.367188 C 648.273438 613.546875 648.269531 615.726562 648.265625 617.90625 C 648.269531 618.554688 648.273438 619.207031 648.277344 619.875 C 648.269531 621.417969 648.1875 622.960938 648.089844 624.5 L 646.636719 625.953125 C 644.457031 626.277344 644.457031 626.277344 641.875 626.453125 L 639.285156 626.640625 L 637.203125 626.679688 L 636.476562 625.953125 C 636.410156 624.921875 636.382812 623.890625 636.386719 622.859375 L 636.386719 620.839844 L 636.394531 618.601562 L 636.394531 616.261719 C 636.394531 613.695312 636.398438 611.132812 636.40625 608.566406 L 636.40625 603.246094 C 636.410156 598.566406 636.417969 593.886719 636.425781 589.207031 C 636.433594 584.4375 636.4375 579.667969 636.441406 574.898438 C 636.449219 565.53125 636.460938 556.164062 636.476562 546.796875 C 637.925781 546.070312 637.925781 546.070312 640.132812 546.15625 " fill-opacity="1" fill-rule="nonzero"/><path fill="#fefefe" d="M 609.167969 591.59375 L 610.816406 591.511719 C 612.523438 591.820312 612.523438 591.820312 614.519531 592.929688 L 616.152344 594.726562 C 616.527344 596.808594 616.664062 598.371094 616.605469 600.445312 L 616.648438 601.972656 C 616.632812 603.515625 616.519531 604.847656 616.152344 606.34375 C 614.070312 609.472656 611.964844 611.34375 608.621094 613.015625 C 602.285156 615.996094 594.882812 617.78125 587.832031 617.4375 C 585.152344 617.066406 582.890625 616.515625 580.585938 615.058594 C 578.765625 613.300781 577.402344 611.496094 576.230469 609.25 C 575.777344 606.980469 575.777344 606.980469 576.230469 604.890625 C 577.59375 602.441406 577.59375 602.441406 579.132812 600.535156 L 580.585938 600.535156 L 581.035156 599.203125 C 582.039062 597.628906 582.039062 597.628906 583.992188 596.601562 C 589.835938 594.539062 595.269531 593.394531 601.417969 592.808594 C 604.097656 592.515625 606.453125 591.683594 609.167969 591.59375 M 167.585938 592.546875 C 169.277344 595.757812 169.253906 598.636719 169.167969 602.1875 C 168.996094 604.792969 168.660156 606.859375 167.585938 609.25 C 165.683594 610.839844 165.683594 610.839844 163.230469 612.152344 L 162.039062 612.898438 C 156.480469 616.121094 149.371094 617.261719 143 617.511719 C 139.632812 617.363281 136.480469 616.585938 133.472656 615.058594 C 131.527344 613.109375 130.710938 611.851562 129.84375 609.25 C 129.617188 607.207031 129.617188 607.207031 129.84375 604.890625 C 131.738281 601.507812 133.960938 598.652344 137.304688 596.628906 C 145.515625 592.972656 158.792969 589.613281 167.585938 592.546875 " fill-opacity="1" fill-rule="nonzero"/></svg>